<svg width="100" height="100" viewBox="0 0 100 100" xmlns="http://www.w3.org/2000/svg">
  <defs>
    <!-- Gradient for outer border -->
    <linearGradient id="borderGradient" x1="0%" y1="0%" x2="100%" y2="100%">
      <stop offset="0%" stop-color="#6366F1"/>
      <stop offset="100%" stop-color="#8B5CF6"/>
    </linearGradient>

    <!-- Mask to cut out the border outline -->
    <mask id="mask">
      <rect width="100" height="100" rx="20" fill="white"/>
      <rect x="4" y="4" width="92" height="92" rx="16" fill="black"/>
    </mask>

    <!-- Chat bubble shadow -->
    <filter id="bubbleShadow" x="-10%" y="-10%" width="120%" height="120%">
      <feDropShadow dx="0" dy="2" stdDeviation="3" flood-color="#000" flood-opacity="0.3"/>
    </filter>
  </defs>

  <!-- Outer gradient border -->
  <rect width="100" height="100" rx="20" fill="url(#borderGradient)" mask="url(#mask)"/>

  <!-- Base container -->
  <rect x="4" y="4" width="92" height="92" rx="16" fill="#4F46E5"/>

  <!-- Chat bubble with shadow, moved down -->
  <g filter="url(#bubbleShadow)" transform="translate(0, 2)">
    <path d="M30 30C30 27.7909 31.7909 26 34 26H66C68.2091 26 70 27.7909 70 30V60C70 62.2091 68.2091 64 66 64H45L34 74V64H34C31.7909 64 30 62.2091 30 60V30Z" fill="white"/>
  </g>

  <!-- Centered "Z" still in place -->
  <text
    x="50"
    y="50"
    text-anchor="middle"
    dominant-baseline="middle"
    font-size="28"
    font-weight="bold"
    fill="#4F46E5"
    font-family="Arial, sans-serif">
    Z
  </text>
</svg>
