<svg
  xmlns="http://www.w3.org/2000/svg"
  viewBox="0 0 48 48"
  width="24"
  height="24"
>
  <path
    fill="#EA4335"
    d="M24 9.5c3.02 0 5.73 1.16 7.83 3.04l5.85-5.85C33.93 3.22 29.27 1 24 1 14.61 1 6.91 6.95 3.5 15.19l6.88 5.34C12.11 14.51 17.58 9.5 24 9.5z"
  />
  <path
    fill="#34A853"
    d="M24 46c5.14 0 9.77-1.73 13.46-4.67l-6.36-5.21C28.64 38.32 26.4 39 24 39c-6.42 0-11.89-5.01-13.62-11.03L3.5 33.81C6.91 42.05 14.61 48 24 48z"
  />
  <path
    fill="#4A90E2"
    d="M46.5 24c0-1.45-.13-2.84-.38-4.19H24v8.13h12.75c-.55 2.81-2.25 5.19-4.66 6.8l6.36 5.21C42.77 35.97 46.5 30.45 46.5 24z"
  />
  <path
    fill="#FBBC05"
    d="M10.38 27.97A14.47 14.47 0 0 1 9.5 24c0-1.4.21-2.76.59-4.03L3.5 15.19C2.54 17.4 2 20.08 2 24c0 3.92.54 6.6 1.5 8.81l6.88-4.84z"
  />
</svg>
